# xmcd
#
# Track frame offsets: 
#        150
#        11002
#        23885
#        40630
#        49220
#        69162
#        83247
#        116997
#        131685
#        152307
#
# Disc length: 2566 seconds
#
# Revision: 16
# Processed by: cddbd v1.5.2PL0 Copyright (c) Steve Scherf et al.
# Submitted via: ExactAudioCopyFreeDBPlugin 1.0
#
DISCID=770a040a
DTITLE=Vince Guaraldi / A Boy Named Charlie Brown (The Original Sound 
DTITLE=Track Recording of the CBS Television Special)
DYEAR=1969
DGENRE=Jazz
TTITLE0=Oh, Good Grief
TTITLE1=Pebble Beach
TTITLE2=Happiness Is
TTITLE3=Schroeder
TTITLE4=Charlie Brown Theme
TTITLE5=Linus and Lucy
TTITLE6=Blue Charlie Brown
TTITLE7=Baseball Theme
TTITLE8=Freda (with the Naturally Curly Hair)
TTITLE9=Fly Me to the Moon
EXTD=Vince Guaraldi - Piano\nMonty Budwig - Bass\nColin Bailey - Drums
EXTD=\n
EXTT0=(Guaraldi - Mendelson) Shifty - Felfar Music - BMI
EXTT1=composed by Vince Guaraldi
EXTT2=composed by Vince Guaraldi
EXTT3=composed by Vince Guaraldi
EXTT4=(Guaraldi - Mendelson) Shifty - Felfar  - BMI
EXTT5=composed by Vince Guaraldi
EXTT6=composed by Vince Guaraldi
EXTT7=composed by Vince Guaraldi
EXTT8=composed by Vince Guaraldi
EXTT9=(Bart Howard) Hamshire House - ASCAP- Additional track not on th
EXTT9=e original LP.
PLAYORDER=
.
